<?xml version="1.0" encoding="utf-8"?>
<!-- Generator: Adobe Illustrator 18.1.1, SVG Export Plug-In . SVG Version: 6.00 Build 0)  -->
<svg version="1.1" id="Camada_1" xmlns="http://www.w3.org/2000/svg" xmlns:xlink="http://www.w3.org/1999/xlink" x="0px" y="0px"
	 viewBox="0 0 1920 1080" enable-background="new 0 0 1920 1080" xml:space="preserve">
<g>
	<polygon fill-rule="evenodd" clip-rule="evenodd" fill="#2BB7D8" points="1149.4,698.8 1048.7,698.8 1140.6,535.1 1048.7,370 
		1149.2,370 1202.3,465 1255,370 1355.7,370 1263.6,534.5 1355.5,698.8 1254.6,699 1202.2,605.2 	"/>
	<path fill-rule="evenodd" clip-rule="evenodd" fill="#2BB7D8" d="M907.5,450.3v41.9h100.4v78.2h-99.9c0,0,0,10.4,0,23.5
		c0,14,11.6,23.3,23.3,23.3c16.7,0,92.1-0.1,92.1-0.1V699c0,0-87.8,0-134.1,0c-38.7,0-72.7-31.1-72.7-72.7c0-47,0-256.3,0-256.3
		h206.8v80.4H907.5z"/>
	<polygon fill-rule="evenodd" clip-rule="evenodd" fill="#2BB7D8" points="451.8,370.1 552.1,370.1 388.4,712 338.2,606.9 	"/>
	<polygon fill-rule="evenodd" clip-rule="evenodd" fill="#2BB7D8" points="619.6,450.6 545,450.6 583.5,370 785.7,370 785.7,450.6 
		711,450.6 711,699 619.6,699 	"/>
</g>
<polygon fill-rule="evenodd" clip-rule="evenodd" fill="#ED6766" points="322.5,574.2 224.8,370 324.9,370 372.9,469.1 "/>
<g>
	<path fill="#ED6766" d="M1460,542.3h-59.4V374c0-3.8-3-6.8-6.8-6.8c-3.8,0-6.8,3-6.8,6.8v181.9h73c3.7,0,6.8-3,6.8-6.8
		S1463.8,542.3,1460,542.3z"/>
	<path fill="#ED6766" d="M1566.2,389.2c-5.2-10-16-21.9-37.4-21.9c-32.7,0-42.7,28.2-43.4,43l0,65.6c0,0,0,0,0,0l0,0l0,73.1
		c0,3.8,3,6.8,6.8,6.8c3.8,0,6.8-3,6.8-6.8v-66.4h59.6v66.4c0,3.8,3,6.8,6.8,6.8c3.7,0,6.8-3,6.8-6.8V410.6l0-0.3
		C1572.2,409.8,1571.6,399.5,1566.2,389.2z M1499,469.1v-58.4c0.2-2.5,2.5-30,29.8-30c27,0,29.6,26.3,29.8,30v58.3H1499z"/>
	<path fill="#ED6766" d="M1675.1,457.3c9-7.2,17.3-20.2,17.3-41.5c0-34.4-26.1-46.8-39.9-48.5l-46-0.1v188.7h50.1
		c13.3,0,38.4-11.7,38.4-56.2C1695,477.2,1685.3,464.2,1675.1,457.3z M1651.2,380.8c3.5,0.6,27.7,5.5,27.7,35
		c0,28.8-17.9,34.5-20.9,35.3h-37.8v-70.3H1651.2z M1656.6,542.3h-36.5v-77.6h37.9c1.3,0.3,6.6,1.5,11.7,5.6
		c7.8,6.2,11.7,16.1,11.7,29.4C1681.5,533.4,1665.2,542.3,1656.6,542.3z"/>
</g>
</svg>
